<svg xmlns="http://www.w3.org/2000/svg" width="24.91" height="17.813" viewBox="0 0 24.91 17.813">
  <defs>
    <style>
      .cls-1 {
        fill: #fff;
        fill-rule: evenodd;
      }
    </style>
  </defs>
  <path class="cls-1" d="M1790.11,46.347a0.874,0.874,0,0,1,1.26,0,0.912,0.912,0,0,1,0,1.265L1785,54.084h21.02a0.891,0.891,0,0,1,.89.892,0.9,0.9,0,0,1-.89.907H1785l6.37,6.461a0.927,0.927,0,0,1,0,1.277,0.875,0.875,0,0,1-1.26,0l-7.88-8a0.912,0.912,0,0,1,0-1.265Zm0,0" transform="translate(-1782 -46.094)"/>
</svg>
