<svg id="Layer_1" data-name="Layer 1" xmlns="http://www.w3.org/2000/svg" width="25.96" height="24" viewBox="0 0 25.96 24"><defs><style>.cls-1{fill:#333;}.cls-2{fill:#fff;}</style></defs><title>cart</title><path class="cls-1" d="M11.38,20.8h0A1.6,1.6,0,1,0,13,22.4,1.6,1.6,0,0,0,11.37,20.8Zm8.12,0h0a1.6,1.6,0,1,0,1.62,1.6A1.6,1.6,0,0,0,19.49,20.8Z" transform="translate(-0.02)"/><path class="cls-1" d="M26,6.4,23.54,16a3.22,3.22,0,0,1-3.24,3.2H11.37A3.22,3.22,0,0,1,8.13,16L6.5,6.4h0L4.88,1.6H.82A.8.8,0,0,1,.82,0H6.08l2,6.4Z" transform="translate(-0.02)"/><path class="cls-2" d="M24,8l-2,8a1.62,1.62,0,0,1-1.62,1.6H11.37A1.62,1.62,0,0,1,9.75,16L8.4,8Z" transform="translate(-0.02)"/></svg>