<svg xmlns="http://www.w3.org/2000/svg" width="20" height="19" viewBox="0 0 20 19">
  <defs>
    <style>
      .cls-1 {
        fill: #fdfdfd;
        fill-rule: evenodd;
      }
    </style>
  </defs>
  <path class="cls-1" d="M969.239,705.065L967.679,700h-4.046a0.634,0.634,0,0,0,0,1.268h3.125l1.254,3.8h-0.006l1.251,7.6a2.517,2.517,0,0,0,2.5,2.532h6.876a2.516,2.516,0,0,0,2.5-2.532l1.878-7.6h-13.77Zm10.645,7.6a1.262,1.262,0,0,1-1.252,1.268h-6.876a1.258,1.258,0,0,1-1.247-1.268l-1.044-6.334h11.981Zm-8.128,3.8a1.266,1.266,0,1,0,1.252,1.264,1.255,1.255,0,0,0-1.252-1.264h0Zm6.251,0a1.266,1.266,0,1,0,1.251,1.264,1.256,1.256,0,0,0-1.251-1.264h0Zm0,0" transform="translate(-963 -700)"/>
</svg>
