<svg xmlns="http://www.w3.org/2000/svg" width="25.97" height="24" viewBox="0 0 25.97 24">
  <defs>
    <style>
      .cls-1 {
        fill: #333;
        fill-rule: evenodd;
      }
    </style>
  </defs>
  <path class="cls-1" d="M1727.63,48.4l-2.02-6.4h-5.26a0.8,0.8,0,1,0,0,1.6h4.06l1.63,4.8h-0.01l1.63,9.6a3.22,3.22,0,0,0,3.24,3.2h8.93a3.22,3.22,0,0,0,3.24-3.2l2.44-9.6h-17.88Zm13.82,9.6a1.615,1.615,0,0,1-1.62,1.6h-8.93a1.615,1.615,0,0,1-1.62-1.6l-1.35-8h15.55Zm-10.55,4.8a1.6,1.6,0,1,0,1.63,1.6,1.612,1.612,0,0,0-1.63-1.6h0Zm8.12,0a1.6,1.6,0,1,0,1.62,1.6,1.605,1.605,0,0,0-1.62-1.6h0Zm0,0" transform="translate(-1719.53 -42)"/>
</svg>
