<?xml version="1.0" encoding="utf-8"?>
<!-- Generator: Adobe Illustrator 20.0.0, SVG Export Plug-In . SVG Version: 6.00 Build 0)  -->
<!DOCTYPE svg PUBLIC "-//W3C//DTD SVG 1.1//EN" "http://www.w3.org/Graphics/SVG/1.1/DTD/svg11.dtd">
<svg version="1.1" id="Layer_1" xmlns="http://www.w3.org/2000/svg" xmlns:xlink="http://www.w3.org/1999/xlink" x="0px" y="0px"
	 width="144px" height="72px" viewBox="0 0 144 72" enable-background="new 0 0 144 72" xml:space="preserve">
	 <defs>
         <style>
           .cls-1{fill:#333;}.cls-2{fill:#fff;}
         </style>
       </defs>
       <g transform="translate(20, 20)">
<path class="cls-1" d="M11.38,20.8h0A1.6,1.6,0,1,0,13,22.4,1.6,1.6,0,0,0,11.37,20.8Zm8.12,0h0a1.6,1.6,0,1,0,1.62,1.6A1.6,1.6,0,0,0,19.49,20.8Z" transform="translate(-0.02)"/><path class="cls-1" d="M26,6.4,23.54,16a3.22,3.22,0,0,1-3.24,3.2H11.37A3.22,3.22,0,0,1,8.13,16L6.5,6.4h0L4.88,1.6H.82A.8.8,0,0,1,.82,0H6.08l2,6.4Z" transform="translate(-0.02)"/><path class="cls-2" d="M24,8l-2,8a1.62,1.62,0,0,1-1.62,1.6H11.37A1.62,1.62,0,0,1,9.75,16L8.4,8Z" transform="translate(-0.02)"/>
</g>
<g transform="translate(92, 20)">
	
		<line fill="none" stroke="#343434" stroke-width="2" stroke-linecap="round" stroke-linejoin="round" stroke-miterlimit="10" x1="22" y1="10" x2="10" y2="22"/>
	
		<line fill="none" stroke="#343434" stroke-width="2" stroke-linecap="round" stroke-linejoin="round" stroke-miterlimit="10" x1="22" y1="22" x2="10" y2="10"/>
</g>
</svg>
