<svg id="Layer_1" data-name="Layer 1" xmlns="http://www.w3.org/2000/svg" width="72" height="72" viewBox="0 0 72 72"><defs><style>.cls-1{fill:#d7017d;}</style></defs><title>Artboard 1 copy 2</title><path class="cls-1" d="M40.9,37.55a2.43,2.43,0,1,1-2.43-2.44,2.43,2.43,0,0,1,2.43,2.44Zm0,0"/><path class="cls-1" d="M36,42.92A2,2,0,1,0,37.78,45,1.95,1.95,0,0,0,36,42.92Zm0,0"/><path class="cls-1" d="M36.17,32a2.93,2.93,0,1,0-2.73-3.1A2.92,2.92,0,0,0,36.17,32Zm0,0"/><path class="cls-1" d="M53,28.84a1.58,1.58,0,0,0-1.58-1.58H47.68a19.79,19.79,0,0,0-1.88-4c-.16-.25-.33-.5-.5-.74l2.45-2.47a1.6,1.6,0,0,0,0-2.24,1.57,1.57,0,0,0-2.23,0l-2.43,2.45a11.1,11.1,0,0,0-4.68-2.13V14.59a1.58,1.58,0,1,0-3.15,0V18a11.27,11.27,0,0,0-5,1.69l-.18.12-2.51-2.52a1.57,1.57,0,0,0-2.23,0,1.6,1.6,0,0,0,0,2.24l2.36,2.37a11.19,11.19,0,0,0-2.46,4.88c0,.17-.08.34-.11.51H21.57a1.59,1.59,0,0,0,0,3.17H25a11.26,11.26,0,0,0,1.66,4.91,4.63,4.63,0,0,1,.64,3.16H23.55a1.59,1.59,0,0,0,0,3.17h2.51a9.5,9.5,0,0,0-.44,1.92,7.91,7.91,0,0,0,.84,4.68l-2.57,2.59a1.58,1.58,0,0,0,0,2.24,1.57,1.57,0,0,0,2.22,0l2.35-2.36a8.36,8.36,0,0,0,5.36,1.92,9.58,9.58,0,0,0,1.41-.12v2.88a1.58,1.58,0,1,0,3.15,0V51.49a15.55,15.55,0,0,0,4.29-3.26L45,50.53a1.56,1.56,0,0,0,2.23,0,1.6,1.6,0,0,0,0-2.24l-2.5-2.52A22.69,22.69,0,0,0,47,41.67h3.84a1.58,1.58,0,0,0,0-3.17H48.09l.15-.64a19.82,19.82,0,0,0,.23-7.43h3A1.59,1.59,0,0,0,53,28.84Zm-7.84,8.33A19.23,19.23,0,0,1,41,45.42c-2.28,2.62-4.82,4.06-7.15,4.06A5.16,5.16,0,0,1,30.12,48a4.72,4.72,0,0,1-1.37-4,7.86,7.86,0,0,1,.77-2.44l0-.06,0-.07c.11-.22.2-.44.3-.66a.69.69,0,0,1,0-.13,7.86,7.86,0,0,0-.65-7,8.26,8.26,0,0,1,2.6-11.31A8.12,8.12,0,0,1,43.13,25,16.34,16.34,0,0,1,45.16,37.17Z"/></svg>