<svg id="Layer_1" data-name="Layer 1" xmlns="http://www.w3.org/2000/svg" width="72" height="72" viewBox="0 0 72 72"><defs><style>.cls-1{fill:#d7017d;}</style></defs><title>Artboard 1 copy</title><path class="cls-1" d="M51.4,17a3.58,3.58,0,0,0-1.21.21,28.82,28.82,0,0,1-7.84,1.53c-1.88.11-3.71.23-5.58.51a24.78,24.78,0,0,0-5.83,1.52,16.68,16.68,0,0,0-8.85,8.63,17.73,17.73,0,0,0-1.58,5.88,14.91,14.91,0,0,0,.73,6.2l.69,2.29c-1,1.25-2.08,2.61-3.21,4.11a3.64,3.64,0,0,0,1.85,5.67l1,.29a3.58,3.58,0,0,0,2.76-.3,3.62,3.62,0,0,0,1.32-1.26c.4-.65,1.29-2,2.25-3.28l.28.15a13.92,13.92,0,0,0,2.72.94,15.06,15.06,0,0,0,3.42.39,16.33,16.33,0,0,0,2.35-.17,17.37,17.37,0,0,0,5.06-1.57A18.81,18.81,0,0,0,46,45.81c.23-.21.46-.43.69-.65a17.31,17.31,0,0,0,2.85-3.87,28.13,28.13,0,0,0,1.83-4.15,60.13,60.13,0,0,0,2.13-7.54c.5-2.28.93-4.76,1.32-7.59L55,21.1a3.65,3.65,0,0,0-.86-2.87A3.6,3.6,0,0,0,51.4,17Zm.94,3.76q-.06.44-.12.89A72.46,72.46,0,0,1,48.9,36.23c-2.35,6.54-8,11.95-15.27,11.55a11.89,11.89,0,0,1-4.38-1.06c-.1,0-.77-.44-1.29-.75a.94.94,0,0,0-1.19.17,35.74,35.74,0,0,0-3.42,4.73.94.94,0,0,1-1.08.41l-1-.29a1,1,0,0,1-.49-1.49,93,93,0,0,1,6.48-7.85c.43-.43.91-.89,1.43-1.36a37,37,0,0,1,5.51-4.14,29.2,29.2,0,0,1,7.25-3.22,1.34,1.34,0,0,0-.72-2.58,31.86,31.86,0,0,0-7.91,3.5A39.64,39.64,0,0,0,27,38.31c-1.12,1-2.06,2-2.82,2.8,0,0-.42-1-.44-1.06-2.08-6.39,1.73-13.75,7.63-16.52,3.47-1.63,7.41-1.88,11.18-2.1a31.28,31.28,0,0,0,8.58-1.68.95.95,0,0,1,1.26,1Zm0,0"/></svg>