<svg id="Layer_1" data-name="Layer 1" xmlns="http://www.w3.org/2000/svg" width="72" height="72" viewBox="0 0 72 72"><defs><style>.cls-1{fill:#d7017d;}</style></defs><title>Artboard 1</title><path class="cls-1" d="M48,21.32l4-3.92L46.53,12l-4,3.92-2.09-2.07L22,32.07l9.66,9.53L43.41,30a11.31,11.31,0,0,1-1.08,14.9,11.65,11.65,0,0,1-12.6,2.47h2.2V44.55H19v2.83h5.46A14.38,14.38,0,0,0,28.66,50L26,59H44l-3-9.64a14.36,14.36,0,0,0,3.33-2.45A14.12,14.12,0,0,0,45.46,28l4.66-4.6Zm-2,2.07L35.51,33.8l-5.6-5.53L40.46,17.86Zm-1.48-5.46L46.53,16l1.42,1.4L46,19.32ZM27.88,30.28l5.6,5.53L31.66,37.6l-5.6-5.53ZM40.15,56.17H29.8l1.61-5.35a14.71,14.71,0,0,0,7-.36Z"/></svg>