<svg id="Layer_1" data-name="Layer 1" xmlns="http://www.w3.org/2000/svg" width="48" height="48" viewBox="0 0 48 48"><defs><style>.cls-1{fill:#fff;}</style></defs><title>Artboard 8</title><path class="cls-1" d="M33.06,26.22H11.42a.66.66,0,0,0-.66.66v3.93a.66.66,0,0,0,.66.66H33.06a.66.66,0,0,0,.66-.66V26.89A.66.66,0,0,0,33.06,26.22ZM17.4,30.15H12.08V27.55H17.4Zm12,0H18.72V27.55H29.4Zm3,0H30.72V27.55H32.4Z"/><path class="cls-1" d="M35,18a3.24,3.24,0,0,1-1.14-2.4A3.23,3.23,0,0,1,35,13.59a.66.66,0,0,0-.83-1,4.52,4.52,0,0,0-1.58,3A4.47,4.47,0,0,0,34.11,19a3.33,3.33,0,0,1,1.14,2.42,3.72,3.72,0,0,1-1.12,2.36.65.65,0,0,0,0,.93.73.73,0,0,0,.93,0,5,5,0,0,0,1.56-3.3A4.6,4.6,0,0,0,35,18Z"/><path class="cls-1" d="M32.24,21.4a3.72,3.72,0,0,1-1.12,2.36.65.65,0,0,0,0,.93.73.73,0,0,0,.93,0,5,5,0,0,0,1.56-3.3A4.58,4.58,0,0,0,32,18a3.24,3.24,0,0,1-1.14-2.4A3.23,3.23,0,0,1,32,13.59a.66.66,0,0,0-.83-1,4.52,4.52,0,0,0-1.58,3A4.47,4.47,0,0,0,31.09,19,3.34,3.34,0,0,1,32.24,21.4Z"/></svg>