<svg id="Layer_1" data-name="Layer 1" xmlns="http://www.w3.org/2000/svg" width="48" height="48" viewBox="0 0 48 48"><defs><style>.cls-1{fill:#fff;}</style></defs><title>Artboard 4</title><path class="cls-1" d="M10.74,20.84a3.23,3.23,0,0,0,1.61,1.6.56.56,0,0,1,.31.75.63.63,0,0,1-.75.31,4.37,4.37,0,0,1-2.25-2.23A4,4,0,0,1,9.92,18a2.82,2.82,0,0,0,.23-2.3,2.81,2.81,0,0,0-1.5-1.36A.58.58,0,0,1,9,13.29a3.93,3.93,0,0,1,2.19,2A3.88,3.88,0,0,1,11,18.52,2.9,2.9,0,0,0,10.74,20.84Z"/><path class="cls-1" d="M14.45,18.73a3.23,3.23,0,0,0-.56,2.2.56.56,0,0,1-.49.65.63.63,0,0,1-.65-.49A4.37,4.37,0,0,1,13.54,18a4,4,0,0,1,2.91-1.42,2.82,2.82,0,0,0,2.1-1,2.81,2.81,0,0,0,.41-2,.58.58,0,0,1,1.13-.23,3.93,3.93,0,0,1-.61,2.89,3.88,3.88,0,0,1-2.92,1.43A2.9,2.9,0,0,0,14.45,18.73Z"/><path class="cls-1" d="M16.48,30.15a.57.57,0,0,0,1.13,0H30.12a.57.57,0,0,0,1.13,0V27.2h1.28a0,0,0,0,1,0,0v2.89a3.13,3.13,0,0,0,3.13,3.13h3.73A.57.57,0,0,0,40,32.7V30.32a.57.57,0,0,0-.57-.57H36.1a0,0,0,0,1,0,0V26.82A3.13,3.13,0,0,0,33,23.69H31.25V20.75a.57.57,0,0,0-1.13,0H17.61a.57.57,0,0,0-1.13,0v1.07H14.22a.57.57,0,0,0-.57.57v2.38a.57.57,0,0,0,.57.57h2.26v4.83Zm0-7.2v1.24H14.79V22.95Zm14.77,3.12V24.83H33a2,2,0,0,1,2,2v2.89a1.18,1.18,0,0,0,1.18,1.18h2.74v1.24H35.7a2,2,0,0,1-2-2V27.25a1.18,1.18,0,0,0-1.18-1.18ZM17.61,29V21.86h12.5V29Zm12.5,0"/></svg>