<svg id="Layer_1" data-name="Layer 1" xmlns="http://www.w3.org/2000/svg" width="48" height="48" viewBox="0 0 48 48"><defs><style>.cls-1{fill:#fff;}</style></defs><title>Artboard 3</title><path class="cls-1" d="M23.35,30.46a3.83,3.83,0,0,0,3.81-3.83,3.88,3.88,0,0,0,0-.59,3.83,3.83,0,0,0,2.39-6.88A3.83,3.83,0,0,0,26,14a3.78,3.78,0,0,0-1.21.2,3.81,3.81,0,0,0-6.38-.78,3.78,3.78,0,0,0-2-.59A3.83,3.83,0,0,0,13,18.59a3.83,3.83,0,0,0,.13,7.54A3.81,3.81,0,0,0,20,28.44,3.83,3.83,0,0,0,23.35,30.46ZM27,24.82a1.09,1.09,0,0,0-.82.37,1.1,1.1,0,0,0-.25.93A2.6,2.6,0,0,1,21,27.74a1.09,1.09,0,0,0-1.88-.16,2.59,2.59,0,0,1-4.73-1.49,1.1,1.1,0,0,0-1-1.16,2.61,2.61,0,0,1,0-5.17,1.1,1.1,0,0,0,.76-1.69A2.61,2.61,0,0,1,16.32,14a2.57,2.57,0,0,1,1.46.45,1.09,1.09,0,0,0,1.47-.23,2.59,2.59,0,0,1,4.43.54,1.09,1.09,0,0,0,1.37.58,2.58,2.58,0,0,1,.9-.16,2.61,2.61,0,0,1,2.4,3.6,1.09,1.09,0,0,0,.37,1.31,2.61,2.61,0,0,1-1.51,4.72H27Z"/><path class="cls-1" d="M31.52,36a3.31,3.31,0,0,0,3-1.87,3.32,3.32,0,0,0-.84-6.52l-.38,0a3.26,3.26,0,0,0-2.14-.79,3.31,3.31,0,0,0-3.3,3.31,3.35,3.35,0,0,0,.48,1.72A3.32,3.32,0,0,0,31.52,36Zm2.14-7.17A2.09,2.09,0,0,1,34,33l-.36.05-.12.35a2.08,2.08,0,0,1-4-.71,2.11,2.11,0,0,1,.12-.7l.11-.31-.2-.26a2.11,2.11,0,0,1-.42-1.25,2.09,2.09,0,0,1,2.09-2.09,2.06,2.06,0,0,1,1.5.64l.24.25.33-.07A2.08,2.08,0,0,1,33.66,28.84Z"/></svg>