<svg id="Layer_1" data-name="Layer 1" xmlns="http://www.w3.org/2000/svg" width="48" height="48" viewBox="0 0 48 48"><defs><style>.cls-1{fill:#fff;}</style></defs><title>Artboard 7</title><path class="cls-1" d="M35.2,24H32.8V19.2a2.4,2.4,0,1,0-4.8,0V28a.8.8,0,0,1-1.6,0V16.8a2.4,2.4,0,1,0-4.8,0V31.2a.8.8,0,0,1-1.6,0V21.6a2.4,2.4,0,0,0-4.8,0V24H12.8a.8.8,0,1,0,0,1.6H16a.8.8,0,0,0,.8-.8V21.6a.8.8,0,1,1,1.6,0v9.6a2.4,2.4,0,0,0,4.8,0V16.8a.8.8,0,0,1,1.6,0V28a2.4,2.4,0,0,0,4.8,0V19.2a.8.8,0,1,1,1.6,0v5.6a.8.8,0,0,0,.8.8h3.2a.8.8,0,1,0,0-1.6Zm0,0"/></svg>