<svg id="Layer_1" data-name="Layer 1" xmlns="http://www.w3.org/2000/svg" width="48" height="48" viewBox="0 0 48 48"><defs><style>.cls-1{fill:#fff;}</style></defs><title>Artboard 10</title><path class="cls-1" d="M27.44,16.59a3.77,3.77,0,1,0-3.77-3.77A3.77,3.77,0,0,0,27.44,16.59Zm0-6.28a2.51,2.51,0,1,1-2.51,2.51A2.52,2.52,0,0,1,27.44,10.31Z"/><path class="cls-1" d="M17.63,36.75a1.1,1.1,0,0,0,1.1,1.1h2.62a1.1,1.1,0,0,0,1.1-1.1V34.43h1.48V23.81l1.4.45.62.2h0l1,.33.22.08s0,.07,0,.1V37.71h1.26V25a.66.66,0,0,1,.66-.66h.94a.66.66,0,0,1,.66.66v1.82H32V25a1.91,1.91,0,0,0-1.91-1.91h-.65A1.23,1.23,0,0,0,29.18,22l-5-5.1a2.09,2.09,0,0,0-1.63-.74c-5.28.2-8.53,6.93-8.75,11.54v6.77h3.83Zm-2.57-3.58V27.69c.21-4.19,3.18-10.15,7.58-10.31a.79.79,0,0,1,.62.32l5,5.07-.64.91-1.2-.39h0l-4.5-1.48A.63.63,0,1,0,21.45,23l1.23.4v9.78Zm6.14,1.26V36.6H18.89V34.43Z"/></svg>