<svg id="Layer_1" data-name="Layer 1" xmlns="http://www.w3.org/2000/svg" width="48" height="48" viewBox="0 0 48 48"><defs><style>.cls-1{fill:#fff;}</style></defs><title>Artboard 9</title><path class="cls-1" d="M36.5,25.11l-1.19-1.6.18-.12a.76.76,0,0,0,.32-.61.77.77,0,0,0-.31-.7L35.31,22,34,21.11a23,23,0,0,0-4-1.92l-1.48-.48a18.11,18.11,0,0,0-4-.69H23a17.93,17.93,0,0,0-4,.6l-1.48.48a18.33,18.33,0,0,0-3.24,1.56L13,21.51c-.51.38-.78.63-.8.64a.77.77,0,0,0-.23.59.76.76,0,0,0,.23.58s.3.27.8.65l-1.56,2.56a.78.78,0,0,0,.66,1.18.79.79,0,0,0,.66-.37l1.52-2.5a18.42,18.42,0,0,0,3.24,1.56l-.75,2.5a.77.77,0,0,0,.52,1l.22,0a.77.77,0,0,0,.74-.55L19,26.86a17.69,17.69,0,0,0,4,.6v2.48a.77.77,0,0,0,1.55,0V27.45a18.09,18.09,0,0,0,4-.69l1,2.52a.77.77,0,0,0,.72.5l.28,0a.77.77,0,0,0,.45-1L30,26.28a22.88,22.88,0,0,0,4-1.92L35.26,26a.76.76,0,0,0,.62.31.74.74,0,0,0,.46-.15A.78.78,0,0,0,36.5,25.11ZM13.95,22.73c2.22-1.71,9.78-6.36,19.72,0C23.73,29.08,16.17,24.44,13.95,22.73Z"/></svg>