<svg id="Layer_1" data-name="Layer 1" xmlns="http://www.w3.org/2000/svg" width="48" height="48" viewBox="0 0 48 48"><defs><style>.cls-1{fill:#fff;}</style></defs><title>Artboard 6</title><path class="cls-1" d="M24.61,12.14a.78.78,0,0,0-1.23,0c-.85,1.06-8.24,10.55-8.24,15.16a8.86,8.86,0,1,0,17.71,0C32.86,22.71,25.46,13.21,24.61,12.14ZM24,34.59a7.3,7.3,0,0,1-7.29-7.29c0-3.55,6-11.62,7.15-13.2l.14-.19.14.19c1.19,1.58,7.14,9.66,7.14,13.2A7.3,7.3,0,0,1,24,34.59Z"/><path class="cls-1" d="M28.23,26.52a.78.78,0,0,0-.78.78A3.45,3.45,0,0,1,24,30.74a.79.79,0,0,0,0,1.58,5,5,0,0,0,5-5A.78.78,0,0,0,28.23,26.52Z"/></svg>