<svg id="Layer_1" data-name="Layer 1" xmlns="http://www.w3.org/2000/svg" width="48" height="48" viewBox="0 0 48 48"><defs><style>.cls-1{fill:#fff;}</style></defs><title>Artboard 1</title><path class="cls-1" d="M31.49,16.33l-.48,0a8.31,8.31,0,0,0-15.17,1.59,5.41,5.41,0,0,0,.31,10.82.66.66,0,1,0,0-1.32,4.09,4.09,0,1,1,.06-8.19h.13a.69.69,0,0,0,.64-.5,7,7,0,0,1,12.63-2.14,6.17,6.17,0,0,0-2.81,1.83.65.65,0,0,0-.16.48.66.66,0,0,0,.71.61.64.64,0,0,0,.45-.22,4.91,4.91,0,0,1,3-1.62l.3,0,.42,0a4.9,4.9,0,0,1,0,9.79.66.66,0,0,0,0,1.32,6.22,6.22,0,0,0,0-12.43Z"/><path class="cls-1" d="M18.56,32a.64.64,0,0,0-.5,0,.66.66,0,0,0-.34.39L17,34.76a.66.66,0,0,0,0,.5.65.65,0,0,0,.37.32.59.59,0,0,0,.22,0,.66.66,0,0,0,.63-.46L19,32.88a.64.64,0,0,0,0-.5A.65.65,0,0,0,18.56,32Z"/><path class="cls-1" d="M20,27.48h0a.66.66,0,0,0-.83.43l-.73,2.29a.66.66,0,0,0,.43.83.64.64,0,0,0,.2,0,.65.65,0,0,0,.63-.46l.73-2.28a.64.64,0,0,0,0-.5A.66.66,0,0,0,20,27.48Z"/><path class="cls-1" d="M26.56,32a.64.64,0,0,0-.5,0,.66.66,0,0,0-.34.39L25,34.76a.66.66,0,0,0,0,.5.65.65,0,0,0,.37.32.59.59,0,0,0,.22,0,.66.66,0,0,0,.63-.46L27,32.88a.64.64,0,0,0,0-.5A.65.65,0,0,0,26.56,32Z"/><path class="cls-1" d="M28,27.48h0a.66.66,0,0,0-.83.43l-.73,2.29a.66.66,0,0,0,.43.83.64.64,0,0,0,.2,0,.65.65,0,0,0,.63-.46l.73-2.28a.64.64,0,0,0,0-.5A.65.65,0,0,0,28,27.48Z"/><path class="cls-1" d="M22.56,32a.64.64,0,0,0-.5,0,.66.66,0,0,0-.34.39L21,34.76a.66.66,0,0,0,0,.5.65.65,0,0,0,.37.32.59.59,0,0,0,.22,0,.66.66,0,0,0,.63-.46L23,32.88a.64.64,0,0,0,0-.5A.65.65,0,0,0,22.56,32Z"/><path class="cls-1" d="M24,27.48h0a.66.66,0,0,0-.83.43l-.73,2.29a.66.66,0,0,0,.43.83.64.64,0,0,0,.2,0,.65.65,0,0,0,.63-.46l.73-2.28a.64.64,0,0,0,0-.5A.65.65,0,0,0,24,27.48Z"/></svg>