<svg id="Layer_1" data-name="Layer 1" xmlns="http://www.w3.org/2000/svg" width="48" height="48" viewBox="0 0 48 48"><defs><style>.cls-1{fill:#fff;}</style></defs><title>Artboard 2</title><path class="cls-1" d="M20.69,18a3.83,3.83,0,1,1,3.83-3.83A3.84,3.84,0,0,1,20.69,18Zm0-6.34a2.51,2.51,0,1,0,2.51,2.51A2.51,2.51,0,0,0,20.69,11.66Z"/><path class="cls-1" d="M24.18,27.81A3.83,3.83,0,1,1,28,24,3.84,3.84,0,0,1,24.18,27.81Zm0-6.34A2.51,2.51,0,1,0,26.7,24,2.52,2.52,0,0,0,24.18,21.47Z"/><path class="cls-1" d="M32.58,21.18a3.83,3.83,0,1,1,3.83-3.83A3.84,3.84,0,0,1,32.58,21.18Zm0-6.34a2.51,2.51,0,1,0,2.51,2.51A2.52,2.52,0,0,0,32.58,14.84Z"/><path class="cls-1" d="M32.58,34.66a3.83,3.83,0,1,1,3.83-3.83A3.84,3.84,0,0,1,32.58,34.66Zm0-6.34a2.51,2.51,0,1,0,2.51,2.51A2.52,2.52,0,0,0,32.58,28.32Z"/><path class="cls-1" d="M22.4,37.84A3.83,3.83,0,1,1,26.23,34,3.84,3.84,0,0,1,22.4,37.84Zm0-6.34A2.51,2.51,0,1,0,24.91,34,2.52,2.52,0,0,0,22.4,31.49Z"/><path class="cls-1" d="M13.29,26.94a3.83,3.83,0,1,1,3.83-3.83A3.84,3.84,0,0,1,13.29,26.94Zm0-6.34a2.51,2.51,0,1,0,2.51,2.51A2.52,2.52,0,0,0,13.29,20.6Z"/></svg>