<svg id="Layer_1" data-name="Layer 1" xmlns="http://www.w3.org/2000/svg" width="48" height="48" viewBox="0 0 48 48"><defs><style>.cls-1{fill:#fff;}</style></defs><title>Artboard 5</title><path class="cls-1" d="M24,17.87A6.13,6.13,0,1,0,30.13,24,6.14,6.14,0,0,0,24,17.87Zm0,10.71A4.58,4.58,0,1,1,28.58,24,4.59,4.59,0,0,1,24,28.58Z"/><path class="cls-1" d="M24,11.17a.79.79,0,0,0-.79.79v2.88a.79.79,0,0,0,1.58,0V12A.79.79,0,0,0,24,11.17Z"/><path class="cls-1" d="M24,32.38a.78.78,0,0,0-.79.78V36a.79.79,0,0,0,1.58,0V33.16A.78.78,0,0,0,24,32.38Z"/><path class="cls-1" d="M33.07,14.93a.79.79,0,0,0-.56-.23.76.76,0,0,0-.55.23l-2,2a.8.8,0,0,0,0,1.12.81.81,0,0,0,1.12,0l2-2a.76.76,0,0,0,.23-.55A.79.79,0,0,0,33.07,14.93Z"/><path class="cls-1" d="M18.08,29.92a.8.8,0,0,0-1.12,0l-2,2a.76.76,0,0,0-.23.55.79.79,0,0,0,.23.56.77.77,0,0,0,.56.23.81.81,0,0,0,.55-.23l2-2a.8.8,0,0,0,0-1.12Z"/><path class="cls-1" d="M36,23.21H33.16a.79.79,0,0,0,0,1.58H36a.79.79,0,1,0,0-1.58Z"/><path class="cls-1" d="M14.84,23.21H12a.79.79,0,1,0,0,1.58h2.88a.79.79,0,0,0,0-1.58Z"/><path class="cls-1" d="M33.07,32l-2-2A.79.79,0,0,0,29.92,31l2,2a.82.82,0,0,0,1.11,0,.79.79,0,0,0,.23-.56A.76.76,0,0,0,33.07,32Z"/><path class="cls-1" d="M18.08,17l-2-2a.76.76,0,0,0-.55-.23.79.79,0,0,0-.79.79.76.76,0,0,0,.23.55l2,2a.79.79,0,0,0,.56.23.8.8,0,0,0,.56-.23.8.8,0,0,0,0-1.12Z"/></svg>