<svg xmlns="http://www.w3.org/2000/svg" width="160" height="23" viewBox="0 0 160 23">
  <defs>
    <style>
      .cls-1 {
        fill: #333;
        fill-rule: evenodd;
      }
    </style>
  </defs>
  <path id="Logo" class="cls-1" d="M36.993,44.892V66.06h4.255V50.9h0.168L49.8,60.744h1.642l8.3-9.842h0.169V66.06h4.465V44.892H59.53L50.81,55.371,41.88,44.892H36.993Zm147.3-.909c6.423,0,12.709,4.637,12.709,11.493s-6.286,11.493-12.709,11.493-12.709-4.638-12.709-11.493,6.285-11.493,12.709-11.493h0Zm0,3.942c-4.367,0-8.563,3.025-8.563,7.551s4.2,7.55,8.563,7.55,8.563-3.024,8.563-7.55-4.2-7.551-8.563-7.551h0ZM86.955,44.892H82.531V66.06h4.424V44.892h0Zm37.829,17.451H109.619V44.892h-4.507V66.06h19.672V62.343h0Zm13.184,3.717h20.219V62.273h-15.67V57.04H156V53.254H142.517v-4.54H157.6V44.892h-19.63V66.06h0Z" transform="translate(-37 -43.969)"/>
</svg>
