<svg xmlns="http://www.w3.org/2000/svg" width="68" height="50.03" viewBox="0 0 68 50.03">
  <defs>
    <style>
      .cls-1 {
        fill: #d7017d;
        fill-rule: evenodd;
      }
    </style>
  </defs>
  <path id="_" data-name=",," class="cls-1" d="M526.309,3527.95H514.9q0-13.14,13.092-17.35l-4.532-9.6a30.835,30.835,0,0,0-12.084,7.25,26.032,26.032,0,0,0-6.546,10.44q-1.845,5.73-1.846,15.83v16.5h23.33v-23.07Zm-42.968,0H471.928q0-13.14,13.092-17.35l-4.532-9.6a30.839,30.839,0,0,0-12.085,7.25,26.054,26.054,0,0,0-6.546,10.44q-1.844,5.73-1.846,15.83v16.5h23.33v-23.07Z" transform="translate(-460 -3501)"/>
</svg>
